<?xml version="1.0" encoding="UTF-8" standalone="no"?>
<svg
   xmlns:dc="http://purl.org/dc/elements/1.1/"
   xmlns:cc="http://creativecommons.org/ns#"
   xmlns:rdf="http://www.w3.org/1999/02/22-rdf-syntax-ns#"
   xmlns:svg="http://www.w3.org/2000/svg"
   xmlns="http://www.w3.org/2000/svg"
   version="1.1"
   id="svg2"
   viewBox="0 0 594.71816 1136.7688"
   height="320.82141mm"
   width="167.84268mm">
  <title
     id="title4315">Airline Position</title>
  <defs
     id="defs4" />
  <metadata
     id="metadata7">
    <rdf:RDF>
      <cc:Work
         rdf:about="">
        <dc:format>image/svg+xml</dc:format>
        <dc:type
           rdf:resource="http://purl.org/dc/dcmitype/StillImage" />
        <dc:title>Airline Position</dc:title>
      </cc:Work>
    </rdf:RDF>
  </metadata>
  <g
     transform="translate(1110.4044,-155.72641)"
     id="layer1">
    <path
       id="path4175"
       d="M -877.98834,226.59249 Z"
       style="fill:none;fill-rule:evenodd;stroke:#000000;stroke-width:2;stroke-linecap:butt;stroke-linejoin:miter;stroke-miterlimit:4;stroke-dasharray:none;stroke-opacity:1" />
    <path
       id="path4193"
       d="m -1038.5383,293.55405 0.1514,926.87185 451.83403,0.2031"
       style="fill:none;fill-rule:evenodd;stroke:#000000;stroke-width:2;stroke-linecap:butt;stroke-linejoin:miter;stroke-miterlimit:4;stroke-dasharray:none;stroke-opacity:1" />
    <path
       d="m -816.58202,974.60335 c 0,0 -8.51525,41.46685 -11.76936,48.37645 -4.17329,8.8618 -12.55439,35.3408 1.30577,59.0017 5.3824,31.7225 18.12229,54.9582 16.14717,95.167 l -5.31213,14.3339 c -0.61464,3.785 -1.30364,7.6071 -0.13726,10.5028 1.53043,6.7458 6.70584,8.5011 12.30939,9.6699 l 33.60849,2.3821 c 8.16396,3.1078 16.09051,4.7006 25.44992,6.0537 l 22.96217,0.3077 15.79455,-0.06 10.83577,-2.819 c 3.56956,-2.7598 7.8008,-5.0643 8.59179,-9.7367 1.27776,-3.3647 -0.92075,-5.3066 -2.98924,-7.3014 -9.34254,2.8855 -14.93442,-1.3032 -21.84468,-3.0057 -6.6757,-2.8085 -13.05967,-3.8853 -19.42794,-4.8688 l -15.64278,-12.0086 -18.42785,-8.9118 c -4.91854,-5.4616 -7.89724,-12.2269 -9.54817,-19.0878 0,0 -2.3945,-46.4425 -0.99704,-45.6694 3.1135,1.7228 18.49196,-61.8024 12.03222,-85.0573 -2.55638,-0.7632 6.67944,-35.26466 8.83279,-36.79272 1.95381,-1.38648 5.60252,-17.03807 5.60252,-17.03807"
       style="display:inline;fill:none;fill-rule:evenodd;stroke:#000000;stroke-width:2;stroke-linecap:butt;stroke-linejoin:miter;stroke-miterlimit:4;stroke-dasharray:none;stroke-opacity:1"
       id="path4251" />
    <path
       id="path4309"
       style="display:inline;fill:none;fill-rule:evenodd;stroke:#000000;stroke-width:2;stroke-linecap:butt;stroke-linejoin:miter;stroke-miterlimit:4;stroke-dasharray:none;stroke-opacity:1"
       d="m -962.07225,972.49924 c 19.8663,1.62363 49.45,-20.68294 49.45,-20.68294 34.18056,17.33279 62.22528,32.87562 95.26669,23.14287 m 71.85704,-29.11343 c -3.65088,-10.3315 -9.37907,-20.00059 -24.00391,-26.83253 l -13.18859,-3.31818 c -20.47497,-18.89454 -44.61943,-32.97574 -72.0227,-42.78238 -18.58534,-7.48469 -39.17591,-12.9362 -61.9807,-11.77383" />
    <path
       d="m -1032.4912,629.93756 c 0.1773,13.95357 -6.0859,33.42201 -1.291,46.06435 -3.6013,6.63965 0.7161,21.83522 1.3649,28.4305 0.7396,17.07044 3.1012,33.68021 8.5023,49.42692 l 9.7317,44.78192 c 4.9968,8.76152 7.0475,18.10727 5.246,28.21709 -0.5884,13.69742 -11.5643,21.60222 -17.5524,32.28849 -9.273,7.74442 -9.9633,42.9374 -7.6845,48.5524 2.2793,5.6148 11.0302,45.67187 28.2594,55.69484 17.22921,10.02298 49.96491,8.35001 49.96491,8.35001 m -15.43236,-344.88175 c 10.71159,3.38465 44.17537,15.52024 48.76578,25.06975 12.09631,28.93525 37.99149,49.47442 21.25796,87.91065 12.60374,50.67781 -0.19642,75.08994 -7.2746,121.35301"
       style="display:inline;fill:none;fill-rule:evenodd;stroke:#000000;stroke-width:2;stroke-linecap:butt;stroke-linejoin:miter;stroke-miterlimit:4;stroke-dasharray:none;stroke-opacity:1"
       id="path4311" />
    <path
       id="path4313"
       style="display:inline;fill:none;fill-rule:evenodd;stroke:#000000;stroke-width:2;stroke-linecap:butt;stroke-linejoin:miter;stroke-miterlimit:4;stroke-dasharray:none;stroke-opacity:1"
       d="m -1030.372,631.91531 c -1.0447,-14.93797 -9.6261,-16.02192 2.517,-55.20173 3.3807,-9.9934 -3.3504,-16.65371 -7.0623,-24.30925 -3.0466,-10.35958 -5.7961,-20.97401 0.3575,-39.22561 14.5646,-21.94051 23.2057,-18.94854 33.3174,-22.14626 l 39.34378,4.52077 c 8.09157,3.05946 14.62375,11.12725 21.0224,19.62393 4.6943,5.30267 7.85516,11.74742 9.13438,19.59362 l -3.64125,14.19636 13.6817,19.14162 c 0.36924,3.39699 -1.09239,5.87098 -4.97328,7.12512 l -7.27958,2.49157 c 0,0 4.50779,8.45722 2.97879,9.96444 -1.52895,1.50723 -18.66128,1.16947 -20.70003,8.08338 2.74458,-5.44359 21.7307,-3.98918 21.64512,-2.24166 -0.0582,1.18804 -3.55029,5.99687 -3.55029,5.99687 0,0 4.65786,8.6789 1.34095,12.70696 -3.31701,4.02795 -18.45861,1.62674 -18.45861,1.62674 0,0 -19.1293,-5.09505 -22.18772,-0.22825 -3.05842,4.8668 2.16988,7.83248 2.16616,14.89952" />
    <path
       d="m -948.48917,668.24681 c 10.42135,14.50087 9.39615,33.26961 9.4558,36.65723 0.0596,3.38761 49.96627,47.57599 55.15041,91.42728 17.31027,3.16496 63.26355,58.48116 61.17508,61.50085 l 49.48552,39.11543 c 12.00826,6.26476 32.41891,10.98596 36.02486,18.79434 5.39518,1.36469 10.78587,2.77178 15.92819,6.49698 l 10.14302,-1.30805 c 4.12244,6.57516 -1.72597,8.99555 -7.02419,11.64511 -4.53534,1.85056 -16.4941,-5.48923 -24.22082,-2.73644 -1.30787,17.945 8.61859,24.82942 13.18909,36.98686 0,0 18.14079,8.89984 16.85086,13.9923 -1.28988,5.09257 -22.42612,-6.66501 -22.42612,-6.66501 l -15.97146,-18.58247 14.00274,25.45099 c 0,0 17.50841,1.71085 16.60963,6.71095 -0.89875,5.00001 -24.3949,0.20339 -24.3949,0.20339 l -11.8203,-20.18046 0.87043,12.43207 4.88978,9.76331 c 0,0 17.10474,5.92841 14.86467,10.48123 -2.24,4.5528 -29.55815,-10.77536 -29.55815,-10.77536 l -4.25282,-23.41997 c 0,0 -1.53244,15.61489 -3.08946,16.99779 -1.55702,1.38288 9.25953,9.00208 6.31238,12.08814 -2.94716,3.08604 -16.96277,-13.93391 -16.96277,-13.93391 l -0.67098,-25.29032 -2.04927,-13.7446 -7.34687,-19.52501 c -36.16264,-24.50806 -97.12107,-41.9972 -105.00512,-74.50999 -14.42352,-16.33419 -32.62288,-28.7571 -41.77973,-50.54668 -17.7248,-16.19738 -38.14974,-28.8472 -43.10774,-61.81884 -10.33489,-6.90894 -22.77289,-10.90843 -28.21979,-24.57957 -6.4002,-10.89141 -8.2934,-19.79817 -6.8046,-27.21551"
       style="fill:#ffffff;fill-rule:evenodd;stroke:#000000;stroke-width:2;stroke-linecap:butt;stroke-linejoin:miter;stroke-miterlimit:4;stroke-dasharray:none;stroke-opacity:1"
       id="path4241" />
  </g>
</svg>
